<svg width="25" height="24" viewBox="0 0 25 24" fill="none" xmlns="http://www.w3.org/2000/svg">
<path d="M21.6744 9.03297C21.5757 9.13875 21.4706 9.25294 21.3591 9.37418C21.0122 9.75146 20.5967 10.2025 20.1109 10.6743L21.083 11.5936C21.2029 11.7035 21.2737 11.8571 21.2794 12.0197C21.2852 12.1823 21.2255 12.3404 21.1136 12.4587C21.0019 12.5769 20.8473 12.6453 20.6847 12.6487C20.522 12.6519 20.3648 12.5898 20.2481 12.4763L19.2074 11.4927C18.5376 12.0627 17.8101 12.5609 17.0366 12.9793L17.6304 14.2015C17.7254 14.3968 17.7087 14.628 17.587 14.8078C17.4653 14.9877 17.2568 15.0888 17.0402 15.0732C16.8235 15.0578 16.6317 14.9278 16.5368 14.7324L15.932 13.4887V13.4888C15.0319 13.841 14.0824 14.0516 13.1178 14.113V15.4056C13.1178 15.6227 13.0019 15.8233 12.814 15.9318C12.626 16.0403 12.3944 16.0403 12.2064 15.9318C12.0184 15.8233 11.9026 15.6227 11.9026 15.4056V14.113C10.9376 14.0516 9.98772 13.8411 9.0872 13.4888L8.48304 14.7326L8.48291 14.7324C8.38811 14.9278 8.19621 15.0578 7.97963 15.0732C7.76305 15.0888 7.55461 14.9877 7.43282 14.8078C7.31104 14.628 7.29449 14.3968 7.38929 14.2015L7.98384 12.9793C7.21015 12.561 6.48242 12.0627 5.81274 11.4927L4.7719 12.4763C4.61363 12.6215 4.39028 12.6724 4.18468 12.6099C3.97908 12.5475 3.82177 12.3811 3.77091 12.1724C3.72005 11.9635 3.78325 11.7434 3.93718 11.5935L4.90956 10.6752C4.42351 10.2031 4.00797 9.752 3.66106 9.3743C3.54972 9.25279 3.44462 9.13914 3.34603 9.0335C3.23116 8.91673 3.16837 8.7586 3.17189 8.5949C3.17528 8.43122 3.24459 8.2758 3.3642 8.16391C3.48381 8.05203 3.64344 7.99317 3.80699 8.00063C3.97055 8.00809 4.1242 8.08132 4.23309 8.20352C4.33399 8.31106 4.44153 8.42796 4.55545 8.55163C6.05756 10.1849 8.57198 12.9192 12.51 12.9192C16.4481 12.9192 18.962 10.1851 20.4646 8.55163C20.5788 8.42741 20.6861 8.31037 20.7873 8.20282C20.937 8.05053 21.1556 7.98801 21.3631 8.03818C21.5706 8.08823 21.7366 8.24351 21.8005 8.44734C21.8642 8.65103 21.8164 8.87333 21.6744 9.03279L21.6744 9.03297Z" fill="#464646"/>
</svg>
